<mxfile host="app.diagrams.net" modified="2024-04-21T07:17:02.091Z" agent="Mozilla/5.0 (Windows NT 10.0; Win64; x64) AppleWebKit/537.36 (KHTML, like Gecko) Chrome/124.0.0.0 Safari/537.36" version="24.2.7" etag="TupcqErd0YhF1C0dG25H" type="github">
  <diagram name="Page-1" id="vXXoLy_NiBTruLb0m3Iu">
    <mxGraphModel>
      <root>
        <mxCell id="0" />
        <mxCell id="1" parent="0" />
      </root>
    </mxGraphModel>
  </diagram>
</mxfile>
